<?xml version="1.0" encoding="UTF-8"?>
<svg xmlns="http://www.w3.org/2000/svg" width="512" height="512" viewBox="0 0 512 512">
  <rect x="20" y="20" width="472" height="472" rx="60" fill="#0b2340"/>
  <rect x="70" y="70" width="310" height="350" rx="18" fill="white"/>
  <path d="M310 70 L380 140 L380 420 L310 420 Z" fill="#f3f3f3"/>
  <rect x="70" y="70" width="170" height="55" rx="10" fill="#20b455"/>
  <text x="155" y="108" text-anchor="middle" font-family="Arial, sans-serif" font-size="34" font-weight="bold" fill="white">CSV</text>

  <g stroke="#d9d9d9" fill="none">
    <rect x="130" y="150" width="230" height="210"/>
    <line x1="180" y1="150" x2="180" y2="360"/>
    <line x1="270" y1="150" x2="270" y2="360"/>
    <line x1="130" y1="190" x2="360" y2="190"/>
    <line x1="130" y1="230" x2="360" y2="230"/>
    <line x1="130" y1="270" x2="360" y2="270"/>
    <line x1="130" y1="310" x2="360" y2="310"/>
  </g>

  <g>
    <rect x="90" y="175" width="24" height="24" rx="4" fill="#20b455"/>
    <rect x="90" y="225" width="24" height="24" rx="4" fill="white" stroke="#999"/>
    <rect x="90" y="275" width="24" height="24" rx="4" fill="#20b455"/>
    <rect x="90" y="325" width="24" height="24" rx="4" fill="white" stroke="#999"/>
  </g>

  <circle cx="360" cy="360" r="90" fill="#20b455" stroke="white" stroke-width="10"/>
  <polygon points="335,320 335,400 400,360" fill="white"/>
</svg>
